<?xml version="1.0" encoding="utf-8"?>
<!-- Uploaded to: SVG Repo, www.svgrepo.com, Generator: SVG Repo Mixer Tools -->
<svg fill="#000000" width="800px" height="800px" viewBox="0 0 32 32" version="1.1" xmlns="http://www.w3.org/2000/svg">
<title>candle-fire</title>
<path d="M11.388 1.284c1.512 11.603-5.882 17.546-4.348 23.27 0.229 0.854 0.637 1.634 1.179 2.331-0.16-0.446-0.252-0.915-0.263-1.404-0.066-3.078 3.151-5.754 5.45-10.061 0.719 1.951 1.485 4.289 1.046 7.256 3.927-1.14 6.911-4.151 7.563-7.342 3.020 5.404 2.588 11.771-3.131 15.061-0.133 0.076-0.268 0.147-0.406 0.213 1.557-0.224 3.003-0.796 4.132-1.763h0c9.264-7.934 1.614-22.381-11.22-27.56z"></path>
</svg>